<svg xmlns="http://www.w3.org/2000/svg" width="72" height="72" viewBox="0 0 72 72" fill="none"><g clip-path="url(#clip0)"><path d="M61.5 15C57.366 15 54 11.637 54 7.5C54 3.363 57.366 0 61.5 0C65.634 0 69 3.363 69 7.5C69 11.637 65.634 15 61.5 15ZM61.5 3C59.019 3 57 5.019 57 7.5C57 9.981 59.019 12 61.5 12C63.981 12 66 9.981 66 7.5C66 5.019 63.981 3 61.5 3Z" fill="#25CFAA"></path><path d="M70.5 17.9999C70.116 17.9999 69.732 17.8529 69.438 17.5619L64.938 13.0619C64.353 12.4769 64.353 11.5259 64.938 10.9409C65.523 10.3559 66.474 10.3559 67.059 10.9409L71.559 15.4409C72.144 16.0259 72.144 16.9769 71.559 17.5619C71.268 17.8529 70.884 17.9999 70.5 17.9999Z" fill="#25CFAA"></path><path d="M43.5 18H4.5C2.019 18 0 15.981 0 13.5V4.5C0 2.019 2.019 0 4.5 0H43.5C45.981 0 48 2.019 48 4.5V13.5C48 15.981 45.981 18 43.5 18ZM4.5 3C3.672 3 3 3.675 3 4.5V13.5C3 14.325 3.672 15 4.5 15H43.5C44.328 15 45 14.325 45 13.5V4.5C45 3.675 44.328 3 43.5 3H4.5Z" fill="#25CFAA"></path><path d="M9 42C4.038 42 0 37.962 0 33C0 28.038 4.038 24 9 24C13.962 24 18 28.038 18 33C18 37.962 13.962 42 9 42ZM9 27C5.691 27 3 29.691 3 33C3 36.309 5.691 39 9 39C12.309 39 15 36.309 15 33C15 29.691 12.309 27 9 27Z" fill="#25CFAA"></path><path d="M16.5 60H1.5C0.672 60 0 59.328 0 58.5C0 57.672 0.672 57 1.5 57H16.5C17.328 57 18 57.672 18 58.5C18 59.328 17.328 60 16.5 60Z" fill="#25CFAA"></path><path d="M16.5 69H1.5C0.672 69 0 68.328 0 67.5C0 66.672 0.672 66 1.5 66H16.5C17.328 66 18 66.672 18 67.5C18 68.328 17.328 69 16.5 69Z" fill="#25CFAA"></path><path d="M16.5 51H1.5C0.672 51 0 50.328 0 49.5C0 48.672 0.672 48 1.5 48H16.5C17.328 48 18 48.672 18 49.5C18 50.328 17.328 51 16.5 51Z" fill="#25CFAA"></path><path d="M67.5 72H28.5C26.019 72 24 69.981 24 67.5V28.5C24 26.019 26.019 24 28.5 24H67.5C69.981 24 72 26.019 72 28.5V67.5C72 69.981 69.981 72 67.5 72ZM28.5 27C27.672 27 27 27.675 27 28.5V67.5C27 68.325 27.672 69 28.5 69H67.5C68.328 69 69 68.325 69 67.5V28.5C69 27.675 68.328 27 67.5 27H28.5Z" fill="#25CFAA"></path><path d="M40.5 57C40.227 57 39.951 56.925 39.711 56.778C39.27 56.502 39 56.019 39 55.5V37.5C39 36.981 39.27 36.498 39.711 36.222C40.155 35.952 40.704 35.925 41.169 36.159L59.169 45.159C59.679 45.414 60 45.933 60 46.5C60 47.067 59.679 47.586 59.172 47.841L41.172 56.841C40.959 56.946 40.731 57 40.5 57ZM42 39.927V53.076L55.146 46.503L42 39.927Z" fill="#25CFAA"></path></g><defs><clipPath id="clip0"><rect width="72" height="72" fill="white"></rect></clipPath></defs></svg>