<svg xmlns="http://www.w3.org/2000/svg" width="66" height="66" viewBox="0 0 66 66" fill="none"><g clip-path="url(#clip0)"><path d="M32.998 27.0703C29.7285 27.0703 27.0684 29.7304 27.0684 33C27.0684 36.2696 29.7285 38.9297 32.998 38.9297C36.2676 38.9297 38.9277 36.2696 38.9277 33C38.9277 29.7304 36.2678 27.0703 32.998 27.0703ZM32.998 36.3516C31.15 36.3516 29.6465 34.8481 29.6465 33C29.6465 31.1519 31.15 29.6484 32.998 29.6484C34.846 29.6484 36.3496 31.1519 36.3496 33C36.3496 34.8481 34.8462 36.3516 32.998 36.3516Z" fill="#FFCA40"></path><path d="M32.998 20.8828C26.3166 20.8828 20.8809 26.3185 20.8809 33C20.8809 39.6815 26.3166 45.1172 32.998 45.1172C39.6795 45.1172 45.1152 39.6815 45.1152 33C45.1152 26.3185 39.6795 20.8828 32.998 20.8828ZM32.998 42.5391C27.7382 42.5391 23.459 38.2599 23.459 33C23.459 27.7401 27.7382 23.4609 32.998 23.4609C38.2579 23.4609 42.5371 27.7401 42.5371 33C42.5371 38.2599 38.2579 42.5391 32.998 42.5391Z" fill="#FFCA40"></path><path d="M65.9496 0.932213C65.7525 0.248109 65.0383 -0.145957 64.354 0.0504957L57.7868 1.94309C57.1673 2.03707 56.6925 2.5719 56.6925 3.21759V12.3869C56.0843 12.0114 55.397 11.7526 54.6615 11.6425C51.9241 8.8647 48.733 6.66673 45.1666 5.10903C41.3221 3.42977 37.2287 2.57821 33.0002 2.57821C24.8743 2.57821 17.2346 5.7426 11.4888 11.4886C5.74293 17.2344 2.57842 24.8741 2.57842 33C2.57842 36.9146 3.30751 40.7056 4.74442 44.2916C3.82713 44.6618 2.96771 45.2174 2.22521 45.9597C-0.73653 48.9216 -0.73653 53.7408 2.22521 56.7026L11.145 65.6224C11.3967 65.874 11.7266 66 12.0565 66C12.3864 66 12.7164 65.874 12.968 65.6224L18.7214 59.8689C23.0961 62.1961 28.0113 63.4219 33.0002 63.4219C39.0177 63.4219 44.836 61.6677 49.8265 58.3489C50.4193 57.9546 50.5803 57.1544 50.186 56.5616C49.7918 55.9688 48.9915 55.8079 48.3988 56.2021C43.8328 59.2389 38.508 60.8439 33.0002 60.8439C28.6993 60.8439 24.4593 59.8484 20.6366 57.954L21.8879 56.7028C24.8496 53.7409 24.8496 48.9217 21.8879 45.9599C19.2135 43.2857 15.0249 43.026 12.0566 45.1813C10.6504 44.1601 8.97009 43.6821 7.30682 43.745C5.8806 40.3435 5.15667 36.7338 5.15667 33.0002C5.15667 17.6471 17.6473 5.15646 33.0004 5.15646C39.8945 5.15646 46.3626 7.62372 51.4527 12.1474C49.6707 13.0346 48.4428 14.8744 48.4428 16.9965C48.4428 19.9818 50.8715 22.4105 53.8568 22.4105C55.4745 22.4105 56.9276 21.6965 57.9206 20.5682C59.8387 24.4101 60.8441 28.6636 60.8441 33.0002C60.8441 38.5082 59.2389 43.8328 56.2023 48.3986C55.808 48.9915 55.969 49.7917 56.5618 50.1858C56.7813 50.3318 57.0292 50.4017 57.2745 50.4017C57.6915 50.4017 58.1008 50.1997 58.3491 49.8264C61.668 44.8362 63.4222 39.0176 63.4222 33.0002C63.4222 27.5656 61.9764 22.2494 59.2372 17.5933C59.2589 17.3972 59.2709 17.1983 59.2709 16.9966V4.19882L65.0682 2.52807C65.752 2.33059 66.1467 1.61632 65.9496 0.932213ZM12.9679 47.7828C14.9245 45.8263 18.1081 45.8264 20.0646 47.7828C22.0212 49.7394 22.0212 52.923 20.0646 54.8796L12.0564 62.8879L4.04807 54.8796C2.09154 52.923 2.09154 49.7394 4.04807 47.7828C5.02634 46.8046 6.31153 46.3154 7.59647 46.3154C8.8814 46.3154 10.1666 46.8046 11.1449 47.7828C11.6484 48.2861 12.4645 48.2861 12.9679 47.7828ZM53.8566 19.8324C52.2928 19.8324 51.0206 18.5602 51.0206 16.9965C51.0206 15.4327 52.2928 14.1605 53.8566 14.1605C55.4203 14.1605 56.6925 15.4327 56.6925 16.9965C56.6925 18.5602 55.4203 19.8324 53.8566 19.8324Z" fill="#FFCA40"></path><path d="M32.998 57.3203C46.4083 57.3203 57.3184 46.4102 57.3184 33C57.3184 32.2882 56.7413 31.7109 56.0293 31.7109C55.3174 31.7109 54.7403 32.2882 54.7403 33C54.7403 44.9887 44.9867 54.7422 32.998 54.7422C32.2861 54.7422 31.709 55.3195 31.709 56.0313C31.709 56.7431 32.2861 57.3203 32.998 57.3203Z" fill="#FFCA40"></path><path d="M31.709 49.9296C31.709 50.6415 32.2861 51.2187 32.998 51.2187C43.044 51.2187 51.2168 43.0459 51.2168 33C51.2168 32.2882 50.6396 31.7109 49.9277 31.7109C49.2157 31.7109 48.6386 32.2882 48.6386 33C48.6386 41.6242 41.6223 48.6406 32.998 48.6406C32.2861 48.6406 31.709 49.2178 31.709 49.9296Z" fill="#FFCA40"></path><path d="M53.5986 52.3115C53.2596 52.3115 52.927 52.4483 52.686 52.6879C52.4462 52.929 52.3096 53.2603 52.3096 53.6006C52.3096 53.9396 52.4462 54.2722 52.686 54.512C52.927 54.7517 53.2583 54.8896 53.5986 54.8896C53.9377 54.8896 54.2702 54.7518 54.51 54.512C54.7498 54.2721 54.8877 53.9396 54.8877 53.6006C54.8877 53.2603 54.7498 52.929 54.51 52.6879C54.2702 52.4482 53.9377 52.3115 53.5986 52.3115Z" fill="#FFCA40"></path></g><defs><clipPath id="clip0"><rect width="66" height="66" fill="white"></rect></clipPath></defs></svg>