<svg xmlns="http://www.w3.org/2000/svg" width="77" height="77" viewBox="0 0 77 77" fill="none"><path d="M38.5 77C17.2223 77 0 59.7806 0 38.5C0 17.2223 17.2194 0 38.5 0C59.7777 0 77 17.2193 77 38.5C77 59.7777 59.7806 77 38.5 77ZM70.2715 22.64C50.4174 57.0283 51.995 54.3794 51.4313 55.0771H69.9025C75.1526 45.1614 75.4301 32.9488 70.2715 22.64ZM49.5306 24.4514C48.6273 22.8916 46.9471 21.9229 45.1443 21.9229C43.3405 21.9229 33.0198 21.9229 31.8556 21.9229C30.0505 21.9229 28.3685 22.8941 27.466 24.4573L20.8216 35.9656C19.9191 37.5289 19.9191 39.4712 20.8216 41.0344L27.466 52.5427C28.3685 54.106 30.0506 55.0771 31.8556 55.0771H45.1443C46.9494 55.0771 48.6315 54.1059 49.5339 52.5427L56.1783 41.0344C57.0808 39.4711 57.0808 37.5288 56.1783 35.9656C55.3379 34.5098 50.2615 25.7172 49.5306 24.4514ZM36.3396 73.928L35.7877 72.9721C35.3723 72.2528 35.6188 71.333 36.3381 70.9178C37.0541 70.5043 37.9754 70.7457 38.3925 71.4682L39.8356 73.9678C51.6694 73.533 61.9641 67.3406 68.1128 58.0851C68.0948 58.0851 31.5071 58.1288 30.6095 57.9876L32.3953 61.0807C32.8107 61.8 32.5642 62.7198 31.8449 63.135C31.1259 63.5501 30.206 63.3039 29.7906 62.5846C26.2546 56.4935 18.1273 42.5763 17.6783 41.4105L8.44503 57.4024C14.4164 66.8562 24.6162 73.2287 36.3396 73.928ZM6.72848 54.3602C15.8379 38.5256 24.7835 22.8949 25.5687 21.9229H7.09769C1.84725 31.8389 1.56993 44.0514 6.72848 54.3602ZM8.88718 18.9151C48.5917 18.9151 45.5049 18.8733 46.3904 19.0125L37.1976 3.08993C37.1866 3.07082 37.1761 3.05157 37.166 3.03233C25.3316 3.46665 15.0355 9.66035 8.88718 18.9151ZM40.6604 3.07203C60.5 37.4352 58.9997 34.753 59.3219 35.5898L68.555 19.5977C62.5717 10.1249 52.3629 3.76999 40.6604 3.07203Z" fill="#FF6D3D"></path><path d="M33.9648 65.3032H33.9686C34.7992 65.3032 35.4706 65.9765 35.4706 66.8071C35.4706 67.6377 34.7955 68.311 33.9648 68.311C33.1342 68.311 32.4609 67.6377 32.4609 66.8071C32.4609 65.9765 33.1342 65.3032 33.9648 65.3032Z" fill="#FF6D3D"></path></svg>