<svg xmlns="http://www.w3.org/2000/svg" width="74" height="74" viewBox="0 0 74 74" fill="none"><g clip-path="url(#clip0)"><path d="M72.5464 54.9758C70.0641 52.4935 66.7636 51.1262 63.2529 51.1262C60.1197 51.1262 57.1541 52.2151 54.788 54.214C49.6297 49.8656 41.8867 50.1196 37.0304 54.9758C36.8259 55.1802 36.7112 55.4574 36.7112 55.7464C36.7112 65.7142 44.8207 73.8237 54.7884 73.8237C64.7562 73.8237 72.8657 65.7142 72.8657 55.7464C72.8655 55.4574 72.7508 55.18 72.5464 54.9758ZM53.7348 56.19C53.9097 56.5823 54.2992 56.8362 54.7303 56.8362H54.8467C55.278 56.8362 55.6676 56.5821 55.8424 56.1897C57.8694 54.3266 60.4828 53.306 63.253 53.306C65.7475 53.306 68.1133 54.1359 70.0399 55.6609C61.4072 63.5792 48.0916 63.6108 39.4226 55.7535C43.6036 52.3599 49.7203 52.5039 53.7348 56.19ZM54.7883 71.6437C46.907 71.6437 40.348 65.879 39.1042 58.3445C43.6386 61.9824 49.1594 63.8028 54.6809 63.8028C60.3032 63.8028 65.9246 61.9158 70.5048 58.1442C69.3455 65.7765 62.7394 71.6437 54.7883 71.6437Z" fill="#4F5CEB"></path><path d="M28.6344 32.3597C28.3041 32.1632 27.8945 32.1553 27.5569 32.3387C27.3632 32.4439 22.7558 34.9765 17.6426 40.2674C12.9225 45.1514 6.88688 53.4025 4.93759 64.9769C4.55935 67.2229 5.18705 69.5098 6.66011 71.2517C8.13722 72.9984 10.2958 74.0001 12.5824 74.0001H22.4406C26.1496 74.0001 29.1671 70.9827 29.1671 67.2736V33.2964C29.1672 32.9121 28.9648 32.5562 28.6344 32.3597ZM26.9874 67.2736C26.9874 69.7807 24.9478 71.8203 22.4408 71.8203H12.5826C10.9385 71.8203 9.38655 71.1 8.32454 69.8441C7.26657 68.5932 6.81563 66.9512 7.08735 65.3391C8.93836 54.3481 14.6719 46.4928 19.1559 41.8386C22.273 38.6031 25.2377 36.4188 26.9874 35.2551V67.2736Z" fill="#4F5CEB"></path><path d="M17.4395 64.6851C14.6532 64.6851 11.8418 65.5135 11.8418 67.3645C11.8418 67.9665 12.3297 68.4544 12.9317 68.4544C13.4658 68.4544 13.9102 68.0703 14.0034 67.5631C14.3261 67.3003 15.5677 66.8649 17.4395 66.8649C19.3113 66.8649 20.5527 67.3003 20.8756 67.5631C20.969 68.0701 21.4132 68.4544 21.9473 68.4544C22.5493 68.4544 23.0372 67.9665 23.0372 67.3645C23.0372 65.5135 20.2256 64.6851 17.4395 64.6851Z" fill="#4F5CEB"></path><path d="M39.5568 17.0313C39.289 16.6486 34.2895 9.61017 27.1768 6.43843L29.0654 2.38188C29.3195 1.83627 29.0831 1.1879 28.5373 0.933961C27.9919 0.679875 27.3435 0.916328 27.0894 1.46208L25.1351 5.66042C24.1372 5.34592 23.106 5.11857 22.0477 5.00136V1.08991C22.0477 0.487937 21.5598 0 20.9578 0C20.3558 0 19.8679 0.487937 19.8679 1.08991V4.92317C18.7703 4.96739 17.6988 5.13505 16.6599 5.40113L14.8261 1.46193C14.572 0.916184 13.9238 0.679875 13.3782 0.933816C12.8324 1.1879 12.5961 1.83613 12.85 2.38173L14.5711 6.0787C7.00448 9.03898 1.60999 16.6332 1.33148 17.0313C1.06887 17.4065 1.06887 17.906 1.33148 18.2812C1.67778 18.7762 9.93499 30.402 20.4443 30.402C30.9535 30.402 39.2107 18.7759 39.557 18.281C39.8194 17.9058 39.8194 17.4065 39.5568 17.0313ZM14.5778 8.44641C16.4171 7.61911 18.3941 7.09013 20.4442 7.09013C22.495 7.09013 24.4743 7.62171 26.3165 8.45248C27.8132 9.99043 28.6378 12.0133 28.6378 14.1638C28.6378 16.3524 27.7855 18.41 26.238 19.9576C24.6905 21.5051 22.6328 22.3575 20.444 22.3575C18.2554 22.3575 16.1977 21.5052 14.6502 19.9576C11.4806 16.7879 11.4576 11.6469 14.5778 8.44641ZM20.4444 28.2225C12.3796 28.2225 5.41781 20.0121 3.58646 17.6558C4.59745 16.352 7.17502 13.26 10.6428 10.7557C10.2677 11.8374 10.0707 12.9854 10.0707 14.1639C10.0707 16.9347 11.1498 19.5398 13.109 21.499C15.0683 23.4584 17.6733 24.5374 20.4442 24.5374C23.215 24.5374 25.8201 23.4583 27.7793 21.499C29.7387 19.5398 30.8176 16.9349 30.8176 14.1639C30.8176 12.988 30.6213 11.8427 30.248 10.7632C33.7115 13.2664 36.2894 16.3539 37.3018 17.6564C35.4692 20.0143 28.508 28.2225 20.4444 28.2225Z" fill="#4F5CEB"></path><path d="M20.4439 8.72729C17.6847 8.72729 15.4399 10.972 15.4399 13.7313C15.4399 16.4905 17.6847 18.7352 20.4439 18.7352C23.2031 18.7352 25.4479 16.4905 25.4479 13.7313C25.4479 10.972 23.2031 8.72729 20.4439 8.72729ZM20.4439 16.5554C18.8867 16.5554 17.6198 15.2884 17.6198 13.7313C17.6198 12.1741 18.8867 10.9071 20.4439 10.9071C22.0011 10.9071 23.268 12.1741 23.268 13.7313C23.268 15.2884 22.0012 16.5554 20.4439 16.5554Z" fill="#4F5CEB"></path><path d="M58.6509 24.5559C55.8917 24.5559 53.647 26.8006 53.647 29.5599C53.647 32.3191 55.8917 34.5638 58.6509 34.5638C61.4102 34.5638 63.6549 32.3191 63.6549 29.5599C63.6549 26.8006 61.4102 24.5559 58.6509 24.5559ZM58.6509 32.384C57.0938 32.384 55.8268 31.117 55.8268 29.5599C55.8268 28.0025 57.0938 26.7357 58.6509 26.7357C60.2081 26.7357 61.4751 28.0027 61.4751 29.5599C61.4751 31.1172 60.2083 32.384 58.6509 32.384Z" fill="#4F5CEB"></path><path d="M71.2923 31.1636C71.8943 31.1636 72.3822 30.6756 72.3822 30.0736C72.3822 29.4717 71.8943 28.9837 71.2923 28.9837H67.4591C67.4148 27.8862 67.2472 26.8146 66.9811 25.7759L70.9203 23.9421C71.466 23.688 71.7024 23.0397 71.4484 22.4941C71.1943 21.9485 70.5461 21.7122 70.0005 21.966L66.3035 23.687C63.3432 16.1203 55.749 10.7258 55.3511 10.4473C54.9759 10.1846 54.4764 10.1846 54.1012 10.4473C53.6062 10.7936 41.9802 19.0508 41.9802 29.5601C41.9802 40.0694 53.6063 48.3266 54.1012 48.6729C54.2888 48.8043 54.5075 48.8698 54.726 48.8698C54.9445 48.8698 55.1632 48.8042 55.3508 48.6729C55.7335 48.4051 62.7719 43.4056 65.9435 36.293L70.0005 38.1816C70.1494 38.2509 70.3057 38.2837 70.4597 38.2837C70.8703 38.2837 71.2637 38.0505 71.4484 37.6534C71.7025 37.1077 71.466 36.4595 70.9203 36.2055L66.7218 34.2512C67.0363 33.2533 67.2637 32.222 67.3809 31.1638H71.2923V31.1636ZM54.7254 46.418C52.3675 44.5888 44.1599 37.639 44.1599 29.56C44.1599 21.4951 52.3704 14.5334 54.7267 12.702C56.0304 13.7134 59.1224 16.291 61.6266 19.7589C60.545 19.3837 59.397 19.1867 58.2183 19.1867C55.4475 19.1867 52.8425 20.2658 50.8832 22.225C48.9238 24.1843 47.8449 26.7892 47.8449 29.5601C47.8449 32.3311 48.9238 34.936 50.8832 36.8952C52.8425 38.8546 55.4475 39.9336 58.2183 39.9336C59.3942 39.9336 60.5395 39.7374 61.619 39.364C59.1156 42.8278 56.0276 45.4058 54.7254 46.418ZM63.9296 35.4323C62.3916 36.9292 60.3686 37.7537 58.218 37.7537C56.0294 37.7537 53.9718 36.9014 52.4242 35.3539C50.8767 33.8065 50.0243 31.7488 50.0243 29.5601C50.0243 27.3716 50.8766 25.3139 52.4242 23.7663C53.9718 22.2188 56.0294 21.3665 58.218 21.3665C60.3714 21.3665 62.3967 22.1931 63.9355 23.6936C64.7628 25.5328 65.292 27.5098 65.292 29.5598C65.2921 31.6109 64.7604 33.5901 63.9296 35.4323Z" fill="#4F5CEB"></path><path d="M25.2997 42.1356C24.972 41.6306 24.2969 41.4871 23.7921 41.8146C16.1227 46.7911 12.3442 57.2488 12.1871 57.6917C11.9858 58.2588 12.2825 58.882 12.8498 59.0832C12.9703 59.126 13.0932 59.1462 13.2143 59.1462C13.6627 59.1462 14.083 58.8674 14.2415 58.4205C14.2774 58.3191 17.923 48.2215 24.9787 43.6432C25.4837 43.3157 25.6273 42.6406 25.2997 42.1356Z" fill="#4F5CEB"></path><path d="M69.0919 6.08747C65.1879 2.18325 59.9892 0.0332031 54.4537 0.0332031C48.918 0.0332031 43.7196 2.18325 39.8154 6.08733C39.1753 6.72746 38.8228 7.57846 38.8228 8.4838C38.8228 9.38914 39.1753 10.2401 39.8154 10.8803C41.1371 12.2017 43.287 12.2014 44.6082 10.8801C50.0369 5.45153 58.8704 5.45153 64.299 10.8801C64.9391 11.5203 65.7903 11.8728 66.6955 11.8728C67.6007 11.8728 68.4518 11.5203 69.0919 10.8801C70.4134 9.55882 70.4134 7.40878 69.0919 6.08747ZM67.5507 9.33899C67.3222 9.56735 67.0185 9.69324 66.6956 9.69324C66.3727 9.69324 66.0688 9.56735 65.8406 9.33899C62.7012 6.19963 58.5776 4.63016 54.4538 4.63016C50.33 4.63016 46.2063 6.19977 43.0669 9.33899C42.5955 9.81045 41.8284 9.81045 41.3568 9.33899C41.1283 9.11049 41.0026 8.80683 41.0026 8.48394C41.0026 8.16106 41.1283 7.85711 41.3567 7.6289C44.849 4.13645 49.5003 2.21317 54.4537 2.21317C59.407 2.21317 64.0582 4.13645 67.5507 7.6289C67.7792 7.8574 67.9049 8.16106 67.9049 8.48394C67.9051 8.80697 67.7792 9.11063 67.5507 9.33899Z" fill="#4F5CEB"></path><path d="M37.7566 35.8046C37.5517 35.5214 37.2233 35.3538 36.8738 35.3538C36.5244 35.3538 36.196 35.5214 35.991 35.8046C35.2295 36.8566 32.7449 40.4355 32.7449 42.3205C32.7449 44.5971 34.5972 46.4494 36.8738 46.4494C39.1505 46.4494 41.0028 44.5971 41.0028 42.3205C41.0027 40.4355 38.518 36.8565 37.7566 35.8046ZM36.8737 44.2695C35.799 44.2695 34.9245 43.395 34.9245 42.3203C34.9245 41.6802 35.8271 39.9832 36.8731 38.373C37.9217 39.9919 38.8228 41.6985 38.8228 42.3203C38.823 43.3952 37.9486 44.2695 36.8737 44.2695Z" fill="#4F5CEB"></path></g><defs><clipPath id="clip0"><rect width="74" height="74" fill="white"></rect></clipPath></defs></svg>
